<svg width="213" height="303" viewBox="0 0 213 303" fill="none" xmlns="http://www.w3.org/2000/svg">
<path fill-rule="evenodd" clip-rule="evenodd" d="M184.565 303H27.5347C12.3287 303 0 290.666 0 275.454V27.5461C0 12.3338 12.3287 0 27.5347 0H184.565C199.771 0 212.1 12.3338 212.1 27.5461V275.454C212.1 290.666 199.771 303 184.565 303Z" fill="#F44247"/>
<path fill-rule="evenodd" clip-rule="evenodd" d="M115.099 145.487H88.5173V99.8039H115.099C140.268 99.8039 141.68 145.487 115.099 145.487ZM137.922 169.208C177.496 158.308 178.385 70.9557 121.414 70.9557H55.614V232.044H88.7537V173.938H106.164L130.642 232.044H168.76L137.922 169.208Z" fill="#FEFEFE"/>
</svg>
