<svg width="915" height="222" viewBox="0 0 915 222" fill="none" xmlns="http://www.w3.org/2000/svg">
<path fill-rule="evenodd" clip-rule="evenodd" d="M836.792 45.4792C831.27 45.4792 826.792 49.9564 826.792 55.4793V166.521C826.792 172.044 831.27 176.521 836.792 176.521H904.907C910.429 176.521 914.907 172.044 914.907 166.521V55.4792C914.907 49.9564 910.429 45.4792 904.907 45.4792H836.792ZM857.501 135.22H870.849C888.236 135.22 888.593 86.3866 869.067 86.3866H857.501V135.22ZM842.859 72.8346H868.637C908.073 72.8346 909.735 149.166 868.637 149.166H842.859V72.8346Z" fill="white"/>
<path fill-rule="evenodd" clip-rule="evenodd" d="M744.937 40.9607C739.414 40.9607 734.937 45.4379 734.937 50.9607V171.04C734.937 176.562 739.414 181.04 744.937 181.04H813.051C818.574 181.04 823.051 176.562 823.051 171.039V50.9607C823.051 45.4378 818.574 40.9607 813.051 40.9607H744.937ZM758.325 149.167V72.833H799.663V85.9055H771.154L771.391 104.403H799.663V116.857H771.627V136.219H799.663V149.167H758.325Z" fill="white"/>
<path fill-rule="evenodd" clip-rule="evenodd" d="M653.081 31.9233C647.558 31.9233 643.081 36.4005 643.081 41.9234V180.077C643.081 185.6 647.558 190.077 653.081 190.077H721.195C726.718 190.077 731.195 185.6 731.195 180.077V41.9233C731.195 36.4005 726.718 31.9233 721.195 31.9233H653.081ZM694.733 149.901H680.302L680.387 86.669L663.596 86.598V72.1049H710.681V86.669H694.79L694.733 149.901Z" fill="white"/>
<path fill-rule="evenodd" clip-rule="evenodd" d="M561.226 18.3672C555.703 18.3672 551.226 22.8443 551.226 28.3672V193.633C551.226 199.156 555.703 203.633 561.226 203.633H629.34C634.863 203.633 639.34 199.156 639.34 193.633V28.3672C639.34 22.8443 634.863 18.3672 629.34 18.3672H561.226ZM595.603 91.434L587.378 122.631H603.828L595.603 91.434ZM586.731 72.1049H603.954L626.168 149.898H610.844L607.517 136.95H583.761L579.604 149.898H564.397L586.731 72.1049Z" fill="white"/>
<path fill-rule="evenodd" clip-rule="evenodd" d="M469.37 0.29248C463.847 0.29248 459.37 4.76963 459.37 10.2925V211.707C459.37 217.23 463.847 221.707 469.37 221.707H537.484C543.007 221.707 547.484 217.23 547.484 211.707V10.2925C547.484 4.76963 543.007 0.29248 537.484 0.29248H469.37ZM532.547 131.373C528.749 140.581 521.728 150.709 506.765 150.709C486.853 150.709 474.307 134.25 474.307 111C474.307 87.7497 486.853 71.2905 506.765 71.2905C521.498 71.2905 528.519 80.8437 532.432 89.7064L519.656 95.3463C517.354 89.246 512.865 84.9873 506.765 84.9873C496.406 84.9873 490.191 95.9218 490.191 111C490.191 126.078 496.406 137.012 506.765 137.012C513.095 137.012 517.584 132.178 519.771 125.848L532.547 131.373Z" fill="white"/>
<path fill-rule="evenodd" clip-rule="evenodd" d="M377.515 0.29248C371.992 0.29248 367.515 4.76963 367.515 10.2925V211.707C367.515 217.23 371.992 221.707 377.515 221.707H445.629C451.151 221.707 455.629 217.23 455.629 211.707V10.2925C455.629 4.76963 451.151 0.29248 445.629 0.29248H377.515ZM418.283 149.896H404.861V73.4411H418.283V149.896Z" fill="white"/>
<path fill-rule="evenodd" clip-rule="evenodd" d="M285.659 18.3672C280.136 18.3672 275.659 22.8443 275.659 28.3672V193.633C275.659 199.156 280.136 203.633 285.659 203.633H353.773C359.296 203.633 363.773 199.156 363.773 193.633V28.3672C363.773 22.8443 359.296 18.3672 353.773 18.3672H285.659ZM300.532 149.358V72.9025H313.909V137.274H338.9V149.358H300.532Z" fill="white"/>
<path fill-rule="evenodd" clip-rule="evenodd" d="M101.948 40.9607C96.4249 40.9607 91.9478 45.4379 91.9478 50.9607V171.04C91.9478 176.562 96.4249 181.04 101.948 181.04H170.062C175.585 181.04 180.062 176.562 180.062 171.039V50.9607C180.062 45.4378 175.585 40.9607 170.062 40.9607H101.948ZM115.336 149.167V72.833H156.674V85.9055H128.165L128.401 104.403H156.674V116.857H128.641V136.219H156.674V149.167H115.336Z" fill="white"/>
<path fill-rule="evenodd" clip-rule="evenodd" d="M10.0933 45.4792C4.57041 45.4792 0.0932617 49.9564 0.0932617 55.4793V166.521C0.0932617 172.044 4.57042 176.521 10.0933 176.521H78.2074C83.7302 176.521 88.2074 172.044 88.2074 166.521V55.4792C88.2074 49.9564 83.7302 45.4792 78.2074 45.4792H10.0933ZM33.3055 108.137H45.4846C57.6636 108.137 57.0165 86.3806 45.4846 86.3806H33.3055V108.137ZM48.3782 72.6421C74.481 72.6421 74.0734 114.242 55.9417 119.433L70.0707 149.358H52.6061L41.3907 121.686H33.4139V149.358H18.23V72.6421H48.3782Z" fill="white"/>
<path fill-rule="evenodd" clip-rule="evenodd" d="M193.803 31.9233C188.28 31.9233 183.803 36.4005 183.803 41.9234V180.077C183.803 185.6 188.281 190.077 193.803 190.077H261.917C267.44 190.077 271.917 185.6 271.917 180.077V41.9233C271.917 36.4005 267.44 31.9233 261.917 31.9233H193.803ZM217.315 121.733V149.358H201.955V72.9025H230.153C245.857 72.9025 253.766 84.2504 253.766 97.3177C253.766 110.385 245.857 121.733 230.153 121.733H217.315ZM217.315 108.207H228.319C234.165 108.207 238.062 103.966 238.062 97.3177C238.062 90.6694 234.165 86.4283 228.319 86.4283H217.315V108.207Z" fill="white"/>
</svg>
