<svg width="54" height="52" viewBox="0 0 54 52" fill="none" xmlns="http://www.w3.org/2000/svg">
<path d="M48.0821 12.1203C47.7871 11.1739 47.0791 10.4049 46.194 9.93171L28.1984 1.29575C27.7264 1.05915 27.1954 1 26.7234 1C26.2513 1 25.7203 1 25.2483 1.1183L7.2527 9.81341C6.36767 10.2275 5.71865 10.9964 5.48264 12.002L1.05749 31.4624C0.880483 32.468 1.11649 33.4736 1.70651 34.3017L14.1559 49.7399C14.864 50.4497 15.867 50.9229 16.87 50.9821H36.6947C37.7567 51.1004 38.7598 50.6272 39.4088 49.7399L51.8582 34.3017C52.4482 33.4736 52.6842 32.468 52.5662 31.4624L48.0821 12.1203Z" stroke="#326DE6" stroke-width="1.42857"/>
<path fill-rule="evenodd" clip-rule="evenodd" d="M13.4012 26.5646C13.0588 26.9268 12.7361 27.266 12.4331 27.5821V18.5532L10.0425 18.9483V33.8845H12.4331V29.1429C12.7887 29.4063 13.1509 29.7257 13.5197 30.1011C13.8885 30.4764 14.2507 30.8749 14.6064 31.2964C14.962 31.7178 15.2946 32.1525 15.6041 32.6003C15.9136 33.0481 16.1869 33.4762 16.424 33.8845H19.19C18.9529 33.4367 18.6565 32.9493 18.3009 32.4225C17.9453 31.8956 17.5633 31.3688 17.155 30.8419C16.7467 30.3151 16.3252 29.8179 15.8906 29.3503C15.4559 28.8827 15.041 28.4843 14.6459 28.155C15.3835 27.4043 16.1178 26.6337 16.8488 25.8435C17.5798 25.0532 18.2746 24.2893 18.9331 23.5517H16.1079C15.8972 23.8019 15.6436 24.095 15.3473 24.4309C15.0509 24.7667 14.7381 25.1158 14.4088 25.478C14.0795 25.8402 13.7437 26.2024 13.4012 26.5646ZM27.6064 33.9339C28.344 33.8088 28.9432 33.6869 29.4042 33.5684V23.5517H27.0137V31.9088C26.8556 31.9483 26.6152 31.9813 26.2925 32.0076C25.9698 32.0339 25.6636 32.0471 25.3738 32.0471C24.5704 32.0471 24.0073 31.81 23.6846 31.3359C23.3619 30.8617 23.2006 30.0714 23.2006 28.965V23.5517H20.81V29.3404C20.81 30.0385 20.8825 30.6806 21.0273 31.2667C21.1722 31.8528 21.4126 32.3566 21.7485 32.7781C22.0843 33.1996 22.5322 33.5289 23.0919 33.766C23.6517 34.003 24.3465 34.1216 25.1763 34.1216C26.0588 34.1216 26.8688 34.059 27.6064 33.9339ZM38.3343 25.7052C38.1368 25.6393 37.8635 25.5702 37.5144 25.4977C37.1654 25.4253 36.7604 25.3891 36.2994 25.3891C36.036 25.3891 35.7561 25.4154 35.4597 25.4681C35.1634 25.5208 34.9559 25.5669 34.8374 25.6064V33.8845H32.4468V24.0456C32.9078 23.8744 33.484 23.713 34.1755 23.5616C34.867 23.4101 35.6342 23.3343 36.4772 23.3343C36.6352 23.3343 36.8196 23.3442 37.0304 23.364C37.2411 23.3837 37.4519 23.4101 37.6626 23.443C37.8733 23.4759 38.0775 23.5155 38.2751 23.5616C38.4726 23.6077 38.6307 23.6505 38.7492 23.69L38.3343 25.7052ZM42.2363 33.845C42.7039 33.9899 43.2933 34.0689 44.0045 34.0821L44.3404 32.1064C44.0243 32.0669 43.7642 32.0109 43.56 31.9385C43.3559 31.866 43.1945 31.7606 43.076 31.6223C42.9574 31.484 42.8751 31.3161 42.829 31.1185C42.7829 30.921 42.7599 30.6773 42.7599 30.3875V18.5532L40.3693 18.9483V30.8419C40.3693 31.3556 40.4253 31.8133 40.5372 32.215C40.6492 32.6168 40.8435 32.9526 41.12 33.2226C41.3966 33.4927 41.7687 33.7001 42.2363 33.845Z" fill="#326DE6"/>
</svg>
